<mxfile host="app.diagrams.net" agent="Mozilla/5.0 (Windows NT 10.0; Win64; x64) AppleWebKit/537.36 (KHTML, like Gecko) Chrome/127.0.0.0 Safari/537.36" version="24.7.7">
  <diagram name="第 1 页" id="QvSKaIkaGYja7V15P9HH">
    <mxGraphModel dx="1834" dy="841" grid="0" gridSize="10" guides="1" tooltips="1" connect="1" arrows="1" fold="1" page="0" pageScale="1" pageWidth="827" pageHeight="1169" math="0" shadow="0">
      <root>
        <mxCell id="0" />
        <mxCell id="1" parent="0" />
        <mxCell id="GzjMZUccyGTRzbvRXXpj-9" style="edgeStyle=none;curved=1;rounded=0;orthogonalLoop=1;jettySize=auto;html=1;exitX=0.5;exitY=0;exitDx=0;exitDy=0;entryX=0.5;entryY=1;entryDx=0;entryDy=0;fontSize=12;startSize=8;endSize=8;" parent="1" source="GzjMZUccyGTRzbvRXXpj-1" target="GzjMZUccyGTRzbvRXXpj-8" edge="1">
          <mxGeometry relative="1" as="geometry" />
        </mxCell>
        <mxCell id="GzjMZUccyGTRzbvRXXpj-10" value="2.拉取代码" style="edgeLabel;html=1;align=center;verticalAlign=middle;resizable=0;points=[];fontSize=12;rounded=0;" parent="GzjMZUccyGTRzbvRXXpj-9" vertex="1" connectable="0">
          <mxGeometry x="0.1702" y="-2" relative="1" as="geometry">
            <mxPoint x="2" y="8" as="offset" />
          </mxGeometry>
        </mxCell>
        <mxCell id="GzjMZUccyGTRzbvRXXpj-12" style="edgeStyle=none;curved=1;rounded=0;orthogonalLoop=1;jettySize=auto;html=1;exitX=0.5;exitY=1;exitDx=0;exitDy=0;entryX=0.5;entryY=0;entryDx=0;entryDy=0;fontSize=12;startSize=8;endSize=8;" parent="1" source="GzjMZUccyGTRzbvRXXpj-1" target="GzjMZUccyGTRzbvRXXpj-11" edge="1">
          <mxGeometry relative="1" as="geometry" />
        </mxCell>
        <mxCell id="GzjMZUccyGTRzbvRXXpj-13" value="5.构建镜像并推送到Harbor" style="edgeLabel;html=1;align=center;verticalAlign=middle;resizable=0;points=[];fontSize=12;rounded=0;" parent="GzjMZUccyGTRzbvRXXpj-12" vertex="1" connectable="0">
          <mxGeometry x="-0.0213" relative="1" as="geometry">
            <mxPoint as="offset" />
          </mxGeometry>
        </mxCell>
        <mxCell id="GzjMZUccyGTRzbvRXXpj-1" value="Jenkins" style="rounded=0;whiteSpace=wrap;html=1;fillColor=#f8cecc;strokeColor=#b85450;" parent="1" vertex="1">
          <mxGeometry x="175" y="170" width="120" height="60" as="geometry" />
        </mxCell>
        <mxCell id="GzjMZUccyGTRzbvRXXpj-3" style="edgeStyle=none;curved=1;rounded=0;orthogonalLoop=1;jettySize=auto;html=1;exitX=1;exitY=0.5;exitDx=0;exitDy=0;entryX=0;entryY=0.5;entryDx=0;entryDy=0;fontSize=12;startSize=8;endSize=8;" parent="1" target="GzjMZUccyGTRzbvRXXpj-1" edge="1">
          <mxGeometry relative="1" as="geometry">
            <mxPoint x="50" y="200" as="sourcePoint" />
          </mxGeometry>
        </mxCell>
        <mxCell id="GzjMZUccyGTRzbvRXXpj-7" value="1.触发构建" style="edgeLabel;html=1;align=center;verticalAlign=middle;resizable=0;points=[];fontSize=12;rounded=0;" parent="GzjMZUccyGTRzbvRXXpj-3" vertex="1" connectable="0">
          <mxGeometry x="-0.296" relative="1" as="geometry">
            <mxPoint x="12" as="offset" />
          </mxGeometry>
        </mxCell>
        <mxCell id="GzjMZUccyGTRzbvRXXpj-6" value="User" style="outlineConnect=0;fontColor=#232F3E;gradientColor=none;strokeColor=#232F3E;fillColor=#ffffff;dashed=0;verticalLabelPosition=bottom;verticalAlign=top;align=center;html=1;fontSize=12;fontStyle=0;aspect=fixed;shape=mxgraph.aws4.resourceIcon;resIcon=mxgraph.aws4.user;rounded=0;" parent="1" vertex="1">
          <mxGeometry x="-16" y="170" width="60" height="60" as="geometry" />
        </mxCell>
        <mxCell id="GzjMZUccyGTRzbvRXXpj-8" value="Gitlab&lt;br&gt;代码仓库" style="rounded=0;whiteSpace=wrap;html=1;fillColor=#dae8fc;strokeColor=#6c8ebf;" parent="1" vertex="1">
          <mxGeometry x="175" y="16" width="120" height="60" as="geometry" />
        </mxCell>
        <mxCell id="GzjMZUccyGTRzbvRXXpj-11" value="Harbor&lt;br&gt;镜像仓库" style="rounded=0;whiteSpace=wrap;html=1;fillColor=#dae8fc;strokeColor=#6c8ebf;" parent="1" vertex="1">
          <mxGeometry x="175" y="324" width="120" height="60" as="geometry" />
        </mxCell>
        <mxCell id="GzjMZUccyGTRzbvRXXpj-22" value="3.Maven打成Jar包&lt;br&gt;4.docker build镜像" style="shape=callout;whiteSpace=wrap;html=1;perimeter=calloutPerimeter;position2=1;rounded=0;" parent="1" vertex="1">
          <mxGeometry x="35" y="30" width="134" height="140" as="geometry" />
        </mxCell>
        <mxCell id="GzjMZUccyGTRzbvRXXpj-42" value="" style="group;fillColor=#eeeeee;strokeColor=#36393d;" parent="1" vertex="1" connectable="0">
          <mxGeometry x="425" y="17" width="443" height="368" as="geometry" />
        </mxCell>
        <mxCell id="GzjMZUccyGTRzbvRXXpj-38" value="" style="rounded=0;whiteSpace=wrap;html=1;dashed=1;fillColor=#eeeeee;strokeColor=#36393d;" parent="GzjMZUccyGTRzbvRXXpj-42" vertex="1">
          <mxGeometry width="443" height="368" as="geometry" />
        </mxCell>
        <mxCell id="GzjMZUccyGTRzbvRXXpj-43" style="edgeStyle=none;curved=1;orthogonalLoop=1;jettySize=auto;html=1;exitX=1;exitY=0.5;exitDx=0;exitDy=0;entryX=0;entryY=0.5;entryDx=0;entryDy=0;fontSize=12;startSize=8;endSize=8;" parent="GzjMZUccyGTRzbvRXXpj-42" source="GzjMZUccyGTRzbvRXXpj-14" target="GzjMZUccyGTRzbvRXXpj-37" edge="1">
          <mxGeometry relative="1" as="geometry" />
        </mxCell>
        <mxCell id="GzjMZUccyGTRzbvRXXpj-46" value="7.调度到&lt;br&gt;工作节点" style="edgeLabel;html=1;align=center;verticalAlign=middle;resizable=0;points=[];fontSize=12;" parent="GzjMZUccyGTRzbvRXXpj-43" vertex="1" connectable="0">
          <mxGeometry x="-0.2" y="1" relative="1" as="geometry">
            <mxPoint as="offset" />
          </mxGeometry>
        </mxCell>
        <mxCell id="GzjMZUccyGTRzbvRXXpj-14" value="K8S Master" style="rounded=0;whiteSpace=wrap;html=1;fillColor=#d5e8d4;strokeColor=#82b366;" parent="GzjMZUccyGTRzbvRXXpj-42" vertex="1">
          <mxGeometry x="39" y="160.0520607375271" width="120" height="47.89587852494577" as="geometry" />
        </mxCell>
        <mxCell id="GzjMZUccyGTRzbvRXXpj-41" value="" style="group" parent="GzjMZUccyGTRzbvRXXpj-42" vertex="1" connectable="0">
          <mxGeometry x="247" y="66.25596529284165" width="170" height="235.48806941431667" as="geometry" />
        </mxCell>
        <mxCell id="GzjMZUccyGTRzbvRXXpj-37" value="" style="rounded=0;whiteSpace=wrap;html=1;fillColor=#f5f5f5;fontColor=#333333;strokeColor=#666666;dashed=1;" parent="GzjMZUccyGTRzbvRXXpj-41" vertex="1">
          <mxGeometry width="170" height="235.48806941431667" as="geometry" />
        </mxCell>
        <mxCell id="GzjMZUccyGTRzbvRXXpj-26" value="K8S工作节点1" style="rounded=0;whiteSpace=wrap;html=1;fillColor=#d5e8d4;strokeColor=#82b366;container=0;" parent="GzjMZUccyGTRzbvRXXpj-41" vertex="1">
          <mxGeometry x="25" y="16.763557483731017" width="120" height="47.895878524945765" as="geometry" />
        </mxCell>
        <mxCell id="GzjMZUccyGTRzbvRXXpj-27" value="K8S工作节点2" style="rounded=0;whiteSpace=wrap;html=1;fillColor=#d5e8d4;strokeColor=#82b366;container=0;" parent="GzjMZUccyGTRzbvRXXpj-41" vertex="1">
          <mxGeometry x="25" y="91.00216919739695" width="120" height="47.895878524945765" as="geometry" />
        </mxCell>
        <mxCell id="GzjMZUccyGTRzbvRXXpj-28" value="K8S工作节点N" style="rounded=0;whiteSpace=wrap;html=1;fillColor=#d5e8d4;strokeColor=#82b366;container=0;" parent="GzjMZUccyGTRzbvRXXpj-41" vertex="1">
          <mxGeometry x="25" y="173.22342733188717" width="120" height="47.895878524945765" as="geometry" />
        </mxCell>
        <mxCell id="GzjMZUccyGTRzbvRXXpj-66" value="" style="image;sketch=0;aspect=fixed;html=1;points=[];align=center;fontSize=12;image=img/lib/mscae/Kubernetes.svg;" parent="GzjMZUccyGTRzbvRXXpj-42" vertex="1">
          <mxGeometry x="15" y="307" width="50" height="48" as="geometry" />
        </mxCell>
        <mxCell id="GzjMZUccyGTRzbvRXXpj-15" style="edgeStyle=none;curved=1;rounded=0;orthogonalLoop=1;jettySize=auto;html=1;exitX=1;exitY=0.5;exitDx=0;exitDy=0;fontSize=12;startSize=8;endSize=8;entryX=0;entryY=0.5;entryDx=0;entryDy=0;" parent="1" source="GzjMZUccyGTRzbvRXXpj-1" target="GzjMZUccyGTRzbvRXXpj-14" edge="1">
          <mxGeometry relative="1" as="geometry">
            <mxPoint x="398" y="200" as="targetPoint" />
          </mxGeometry>
        </mxCell>
        <UserObject label="6.SSH登录部署&lt;br&gt;使用kubectl apply" tooltip="" id="GzjMZUccyGTRzbvRXXpj-16">
          <mxCell style="edgeLabel;html=1;align=center;verticalAlign=middle;resizable=0;points=[];fontSize=12;rounded=0;" parent="GzjMZUccyGTRzbvRXXpj-15" vertex="1" connectable="0">
            <mxGeometry x="-0.1068" relative="1" as="geometry">
              <mxPoint as="offset" />
            </mxGeometry>
          </mxCell>
        </UserObject>
        <mxCell id="GzjMZUccyGTRzbvRXXpj-59" style="edgeStyle=orthogonalEdgeStyle;orthogonalLoop=1;jettySize=auto;html=1;exitX=0.5;exitY=0;exitDx=0;exitDy=0;entryX=1;entryY=0.5;entryDx=0;entryDy=0;fontSize=12;startSize=8;endSize=8;" parent="1" source="GzjMZUccyGTRzbvRXXpj-37" target="GzjMZUccyGTRzbvRXXpj-8" edge="1">
          <mxGeometry relative="1" as="geometry" />
        </mxCell>
        <mxCell id="GzjMZUccyGTRzbvRXXpj-60" value="8.拉取镜像运行" style="edgeLabel;html=1;align=center;verticalAlign=middle;resizable=0;points=[];fontSize=12;" parent="GzjMZUccyGTRzbvRXXpj-59" vertex="1" connectable="0">
          <mxGeometry x="0.0426" y="1" relative="1" as="geometry">
            <mxPoint as="offset" />
          </mxGeometry>
        </mxCell>
        <mxCell id="GzjMZUccyGTRzbvRXXpj-62" value="" style="shape=image;html=1;verticalAlign=top;verticalLabelPosition=bottom;labelBackgroundColor=#ffffff;imageAspect=0;aspect=fixed;image=https://cdn4.iconfinder.com/data/icons/socialcones/508/Gitlab-128.png" parent="1" vertex="1">
          <mxGeometry x="180.66" y="32" width="28" height="28" as="geometry" />
        </mxCell>
        <mxCell id="GzjMZUccyGTRzbvRXXpj-68" value="" style="shape=image;imageAspect=0;aspect=fixed;verticalLabelPosition=bottom;verticalAlign=top;image=data:image/png,iVBORw0KGgoAAAANSUhEUgAAAFcAAABYCAIAAAAP/PzuAAAACXBIWXMAAA7EAAAOxAGVKw4bAAAAEXRFWHRTb2Z0d2FyZQBTbmlwYXN0ZV0Xzt0AACAASURBVHic7Xx3nFzFkX9Vd7837828mc05KueAAsiSQEIChLCxCcLYIjrcxwEDJpmzwQTbgMFgDIjgO5+NMGCwMOZAYIKEkVBASAgJWShrtTmHmZ3wQnfX749ZCdkYW1oEvvv8rj5v5/N2dvZN97erqquqqwq11vD/PbF/9QD+R9D/oQDwfyhkSfyrBwAAhEQfehMBkBBo4B4Gbj8Z+lRRICIiQkQAyL5+QIf/RtkfJCJApA/9/ZjTp80LRAQAiEhKApDWmjH2oVVGrTXjjHFDfYIc8AF9SiggIhGR1qQJkACRtCatXdfdt2+v67qVlZWO4zDGDMMQQjDOEZGAAAdEgT5JdvjEUSAirTUiMkCGrLOzffnzzy999NGOzvZ0KkVIyWTKtkOMISIqpcLh8IwZM+bPP+XML5wVijgRJzrwHECArKI49mjgMbeasjyvlGKMEZHgwvN80vrlP7207PfLNr+zOdHbEwmH+pOJyZMnTj9h2qjRI0OWGQRy/766tzZs2LNnTyqZjMVykYvzL7jo25dfUZCTn3IzlmkCECIg4DHf2o49CgBARJlMJhQKMcZ813v99ddvuuGHrW3NQ6prGhsbpJ9ZcOrJl132zfETxgbSNQyWcVNBoDkzhGEA0c6dO5966uk/r1obT6aHDh/10MP/WTukVnBGAIgMkcGxBuITQSGTyZimGcigP953+WWXrV2z5qILvnzpJZesXPHqc3985tqrLp8983hSQSgkSHukZSrVrzUyNLLqQ2sNgP1J974lD6/dsInQvOfee0+cM1cBMBH6X4BCdi+UUkopH3xwydJHf3Pa/HkXXPjljtaWu35626SJY7773W+XFOX56ZRWAQPNUYOSoDUiEnEAUFqRkloRN0LMDO1vaPm3r19h29H7H1s6avTYkBVB5ADs2GqHY4yCUgoA0un0xRdd3NhQf821V02ZOP65Z5955aU/nXf+oi+e9/lwmNxkHDWh1qg1ggZNHIkACAEINGnQCgCQcwkQAN+4cfsNN/1UMvHs88uHDBvOuYnIEPkxHPYxQyG7EQRBgIhXXXXVSy+++MTjj/f2dj352FLpZU6df8p5i85xHJ7ob0OSJAm1Ak0MNGiNRIQADIGASANpIkKGvla+AoXhVas33fKTu2K5+ctfeaWsvAIAjy0Kx0y6tNbpdNp13ZdffnnFihVPPPlkPN63/IUXLDNUVlJyzhc+bxuYjPeCVKA0A1BSkVJEBICa9IBZCZDdBBAREQvyC5SiaCx6+sLTFp19rpbq0f/6DSkNQH99fVw6ZryglBJCZDKZiy66qL6+vqysbOuWLUgaAv/5Zb8bNazGd5MEgQZfSl8IIzcn9v5f/qJVUFFebggmpQTGOCAAEWggAEAwhCfplddWPfbY79MZvr+uoXrY0MeffrKiqjJkhwEABxTEx9URx4wXELG1tfXiiy/euHFjZ2dnZWXlI7/85XP//d9VVZUdbS3kp0BlSLqoJGi9b8/uMxaefs45F5x77qVPPvlkMpU6bCkOTQnjfQkEeGn5C/PnzqkoK3bsUHtr48rXXrHDFoACOmbscAxsx0N+0T333LN27drKyso77rgz2d+/Zs16P5MiTQ11+7zxtcgUAgkuGg40feNrXx83bszV912Rm5dnhy3DNP/2gYhELD8vnwv7Fz+/j6G4FPD9HTtvuPXWdWvf+MZ3LkfUgARAQMdgszg2FnQQBM3NzStWrKiqqrr77ru3bt3W0NCAwFw3A6BNUyBqRK2UklLf94ufn3bq/GuuucY0TUlaCO55Gc4FAOjsXkHEGBKQ1jqd7EMUmiQBjh03/Lrrrrr9rp831u8urxoKWSUC9Lfu6dHTMZAIrXUmk9myZUtra/vixRfueH/P7t17PDfwvIBx1tHZUlZexBgxQM5ZX1+fUur73/++bYeQkWUZUgaM8WyEQYPWRIHWGpBISxkIzpBpxoFAE8lJkyb4gR9PxIkk6aztxP5OdOLTRwEAotHo9u3bfd+vrKjcv38/EQ3YT1oFgVtTW8k4AGoAysmJ3nrrzb7vShkAUCadsS0LAREYEREBAYTMkOd5yBjD7PAIABiC7/shU9TW1DbUN9LHn/ph9HFRICQECKTf3dXFEfsTCSUlagLSoJVSMhpzHCdCpLVSpCUplRuL5cSiRFpJKQSTgWxv79qyZZuSxDkXnPmBj4w1NTcprYiy3wBhO/zcs8+BgiG1VY1NdQggxIA4/2skwvM8Ig1ABAoA0ffvve32xx/9TWEs5icSPPBAelr5nJGSQWlJmW1FtCZAiagMExUEvYk+YIgcuIFOLFJVVb3qjbWMhYDQ9d1oNNrR0fH888s544wxK2SbRggA9+3b29PTFQ6be/fulDIArRgiECiltB6wOAbHI4NBwbKsVCoNQIiqJ9716D2/ePzu+4tYqLep2euPMwhyY05ONIwgZRDUVA9RKmsQaUBSWgICN4VGRMGIZDqdiuTkl5dXv/KnFUEgQ2YolUpWV9esW7e+paUlk8mk0xmtCYCmHz/9qaeeKCkpfPyxpS++8EJ/Ii4DmY3IDXr+WRrEHoFagxOOuG4Gmfrdrx/97U23TcgtKRw1bPnbb7yx5o13dm0L0jI/JzZ12rSQZQW+8n1fCGLICQgwG0clBFJS9vZ2uxlVWiQWnn7m+ecvKq8smDZ9IiLLpN2TTjxx6dLHrrnue0qph+69d/PW91raWnPyck/OjUVs6+YbbywurJwy5Xg7ggg8a24OGoXB8AICADDTNJ9//o/33vaT40eMOn/mXOjoLs7J2blj++fO+8KVl31n2LBhb61f73nu2xs3SOUTDRjJ2f9HRAANAA0NLRdf9LUzP3/W2Wef1dPbEw5HksmM67ohK3T22We/t23b66+/bllWbW1tTl7eueed99Ajj+TmFkScKCJeccV3OtqbA88lhvTxVMMgLGhEAO3rvXU7zjn/s7mtvXfMOOtAb+eDe9bGisp++ch/yMKYm0hWVdUsXrz4QEOdZeIzj/1nnkXcBBiIRGV9SSRigU/1B5p3vL+TtJoyZfLokcO0Vgq01uR7/urVa2677faHH3pk6OiRwgpJraVUzz/9x5W/fmZUUc2m3e8XjBj2q+eXs+IiRM5Jw0FNmX09chnhN99889Gi4GvwM/4lnz3TaO/42vip5cj2dzWtba2/5/574p3dF3/zq48/sRRRTTt+6ubNmwLPnTF1QnlxQdYJxIMEiJwxwxA5uc64cSNHjhoSi4WEQAKtSGutkbFRI0e7Ge+Xv/yPhaefHnUclJopXbd5W+eW9ydX1qD097c1J105ffZs5CLLDX8/zP/P6CgkYuBcgEBx+NVjj/pNXcdbpXPQsoN+YJnCAqu2tmry5HFTp437xjcvefXV54YOKZ523LiLLvjy0KFDCYgRY8QYIQIiAEONIIF8Q2gAj3GPG0qqtCYPUTKmkRHn7LJvXza0pvbKb13WvPeAqSiktOrorBLCTnRPqSyJofjjb5/Yt+V9/vFcwiNFQSOobExcqt7mxj/8eklBpuf82tqQSnDuBcy3UJTmFUVyrLAF55yz4JJLz+9PdPz41u9f+OWzY9FwyLI/AHLAA0IgBNQAGoCQGBICMCJiDLlAxjSA9oPgxptuiuXm3nDjDclUignR0tFqh81ckIUyuXD8mKC95Z6f/tTzvU8DBQLQABpJK/+xe+7kjXvmj6wqo2RP0JdOp/Ijuao7Vbdvr8f80oKYEzLP/vyZM0+YLlAaTDMgpTRk1eqA84NIHIkBZa1gDmQghIgMIgNRCG5wxjOZtGGKkG0PHzUq7ERj+XnpwNvbcKAgPy9M2smkq8ibMaz63bWrN761LqtuP2EUtFaglJTdne3vrHh5hNJza2tdGfelzzxZY+Tma3Ppk08c6G675NzzDGEk4wnlB9oPGBGRAgCEbLyQAXEgno0LcDA4CAZCE3JhmmZ446at6aTu7fVSafAl9vTF3974zuo315119tmu58UT8Xh7V3E4ZgUUClRuJjmtsjTfTy/52U8zbmrQZzdHigICotQa6bkX/ti2Z98pw4eHerr9IMNQGlpST3xCxZDlL7+8v629PFaeSCUF40wRI8KsA3zwYA4RGWOILHt7KEZCBIAskUyvfP2NpsbWSDi3P+Euf+Hlb37zsmXLnr3xxpvOOfe8jAwamhstADPjh7S2lY4Ffq70J5YX79i6ad1baxU7eKp5lHSkVhMi074iQz//+2VDbGNcfiHrTCqQHCSDIF/xE2LF9a2dSy6/uf/O6+dOmtrT0fnAnT/76te+OnTUcEVMa+JABASHzqdpYAEs2+pPJpkQitCK2CfMnHX19dcjCsuyR44YeccdPy8sKgBP/uRHt0+aedzu7VtKnaitkRMCY6QxKllFab7Z2bJ2xcqpn5nloGWEzKO1I4/UXiBAFcjm1gNnTph0fm3p2WVlobakzwNgkoi0xg7fbuCh5/e8s0eqkrGV+3Y1zfrMcUse/LkCiQw5MjFwCv9XA8waSMlk8sFHHv7COYtKS8sQuWWHtSLfk6SZ6/qvvvbqg794YOqUSXf8/LbvffUrM1nOFHCiQUqagaWMFHOaS/Ife3tjvWms2LEjLMKmZX7EJD6SjpgXCBToZx77baHCIcUlge8ZpBgaGgSgDyydb1kGD3158vTtna0rW/srisu+dcW1ZiTmuXHOGeis0/y3p/COE02lUpwb804+5fbb7mhpbUsmM5qgsLBQSn3llVfedNPNpmFNnXHCz26/bfvmjbqtp6yymLsBGZgJMStNlqZo0p9aUtnd2rR5/frZcxccLQRHgQIgKArWLn+pjIkqK4x9XSAIUNKAlcIEeFHqMzVVlOZjcd5b++vaW5rl5OFcIBAh0xyxu7unoKBAKXVIHymlPM+/8667fnjzzY89uvTtje+8++67jc3NLS1tBOA49uLFX5w+/fgpU6Yb4ciLv392qJ1TxJnNA4baloRAppKOG1Ra4ZDnvbPmzRnTZ5u50U8MBSA/mUw2No+IRsNSMa2AEaEa8I1AAGgBriAgT43LtXeq1Ia1K+ctnJV1GpDI94MNb781YcKE8rLyQ8qciHJyYosXX3DN1dfc8IMbx40eM3bMGMOwgGHGcy3bnDN3luu7QRBs3bZ1z+b3TisqDWttotREtg8ImoM2tIqFzWjY2PbOJutoATgSFAg+iG72NLRSPFVWUa7cDCmZNR8YZYPmTH/A5qxMGiVmZNvWrX398aKCQi+d5ESWbZ104py77rrruu9dZ4iQaZoAEI/HCwuLRo4Ycfy0aRdddGE0mls9pDYScSJRR5MO2calX7m4oqaqpbnzzh/+aHRhWXksT0gPDgoVAgFoYpJzoSloaWhM9qdiR88LR7RTkibStHXTZgyCoeXlFjA4TMcdnD4BKIQAAZyMP6qiKhnvXb/xHSsSJUCtCQgcx5kyZcoD9z9gWQNrVlRUpLWyQ9ZXLr7k5ht+OHnyxObmxt07d+7bvScWjZy64BQzbPX1J//43PLWffVDSspzuMkJACQBAIiDuU8KUZeWFvV0dXW1dxwtBPCPeYEOpk1oJCJo6mpPBxmTc+0H4mAEHAd8ZQLQhBKAmI6Tn1cWjYwNFz/z62Xz5y2IWLbOKD/jC4OdOn9+W3PrA7+479KvfjWWEwuCIAgCAGCMz5574qzZswmIG6GQbXf3dbMw15xv2bzr6aefd23YE68fyXPI7+x3hAeRqMdChBlTRwIqTem8fhU1TT/jDgKFI+MFIk26vaebCyEMxv/KZcveEwNJiGm0EnZhW1Fub06syQver2t84811fqCEMIQQMpAM+eWXX55KpR5++CHXdYMg0KTB4C5ql+nABGmiYugGvhW2fV9v2vT+9773I8+3kyJ/5a6md9M6EatI+qbjidIkAXACINSMEWfgpjOp/uSxRyG7uWkEpXVfT1/YtjgjhnTIRCNgSMiIMSCNXEVKWinvjb7upW+t25PKJIHddfcvkumMbYcBOeOmMEKu51/379dnMu611163e9fekBlmxDHQQhGTmmswmOl5XmtL690/e+Bb37jGcUonTJw1atYZVDPhxYau5xq6evMrXB4yFSAREgBqhqogP4cj6+2LDwKFI90jiMgQQkvFEA5BoIE7AScQmoNnhDoB3u3rWdfWvY0cM3/08FGjmRAb3ly5+MKrb/3Bd4+fPk4zFWjfz2SiOc7nzv/SSy+/esX1Pxw/eswXFy0aPnRINBrWWilfvvnu6y+ufm3N2tXk8spoid+bSPv9FdVjw+HYAe+tDb2d7TvqvjiqNj/jeQIQGGrGkSFpKQNXBp8gCgDAkZHWXsaVvm8gA0AG5HOe1DxB1JzwVzXVr08mE6WF1dNPGTp0KBH5bmbs1Lk7N6359tU/tG1ZVVUxfvz4kTXVq197ZfvmTdqlbhsS721dveUdQ/CcaDidSrOAxbsSeeV5UeJGyo/Eu1g0sn3jayPIdmqrxsw+eefqPyfd1kj9vkhZZY6XCUlA4kBARNw0+dEbjv8chaz8c0AmhCkE0wBKQ/aEnYTmQXeO0STF7qR8s6m928opmn7SsNHjw05Rv+szxgIBPM+pHDOmp2XHvfcticaivh9seuX15s11l33mNKOz431M7WjuaHZTLMeZM+P4yorqmqph1ZGSp5Y9uW/1qtNHTxpVWtFpyKd3b2po2uM5Zix/6HFnfGH9n/+wqXnXcG6dHItwYghImpTWUsnBBSCPiBey+QSF+QWBkpK00poRcmAa9F/6O9Y29+8Iwl5FdeXk44zy6sAIJ7TSqHu6u5LxuCWQx5xSe9i3v3fD7NnzvnjeeVVlw3N1qCLpj7Hs2aqwc3jttt7WDfGWdY8vHz9+bIOztb2jh9z0oulzR/TEc7o60kamJqR3d7f7fWVJzyl2nJnT5+xra9ZSYHaT4ii1VkAaobi4+BijgDBg4yEgEVUPHRIY2BokY0LbhE3K29KWfC3d3YX5ueNnVQ0fGclz4n4mnenr6+3tj/eZwiCtlVSCM84rimvKt+5qePmya4e5mc8VlhRybOtv51SMgRpn2ZUFI4+rdNfs3Z8zqbA2xft6PF+1iBgjAywzJ2YwpXpM0OSnvG7PtYPuTAbyY0geEmiitGN0tyRz8vNy8nIHgcI/3ymRAAEYYtnwWnKszky/NHiao8jNaerpTGqzcsSE4ROmMcPuj/f3xxN1dXVuOhUSBiNglDVrOAJohnY0p2bIiJzi/KRMo5KORk6akWJaKi/T3FAfuF5Rbj4WRLwwdypLZYRL4QsKHB1oAo4oSEoZtDQ0lYacchYBACRSRMh5W2eHG/h5uYNB4Yj0QpZKhlQHIbMp3pXOjZiAaYY8N0oUKR85PsMjyWRXqrcrKT3TNIEQSWM2PRGAIQIREpeohGFgJNzX6mJAuRDqBtKagDRJddzECfvXbtjy7rudPXEKgga3j2wjjFY6MD3TjjrMjjipDAhTaN8fVVhWHHAEzQF8wHQm7Ss5ZNjQcNQ+9igcDkhZeYVTWt68fz8NsW3fZZ5RZESSjT0NLS15OcOEYYIiARwZcKVZ1tcEYEwAgQYQAIoJpskXoSbL6MyN5rQmDN6huKFIQMTe0dBo5lePnXnaCXNP2Ld33x9+9VvwfMENCEWSISOTG3NVAIzbfsbv6xlWURzzlInIwNOM9fUbSbdw3qyFRmwwKBxxJJ4g2Zs45ayzEjzck5aGFlFXjSzIrzJ4w96/SJVgXCMhB4YoOGUhQMYYYxwZB8aAMc25Rk7C6XPyN2cybdzuC/Fey+oMR1ceaFy+ff/UL5z79e/fNPuMcz+7+NIHnn8Rxk8888c/mnfT9aGZU5s83zcNQhLS5Zm+gjALg2doIBa4hu4KWLMLx590qhrUIfxRxKBzndjZixd3CdrZHU8rwbVfYqmxsbCR6fXcTkDFuYHIERFZNlGXEDSBAtAMIavOEVlAIZZbuqqusb2gYHuo8m2Z97td3ZnxsxbdfsdPl/3utW1vbd6//Sf3/axoaFUyasXzY/H83DmXXqiiEYVoKvA6W0si6EDGpjQjcrmMR3DVgfc9KzRi3GgdDCYkfxS8IJCVV1VFKkr3dyfByGVEYQrKTSPfxI62A2aIGSFBqOGwZCsCQkTHcdKZNDCGiBpAM6HtaKMfPLN509NbD/z+L/VDPnv+5MVfV8PGjFtw+l2/WVI5ati1P7y+x4sLM2TxSMyKrX1jjRl1ZEZbUsh435iaoiglTEoBKE/wDum2qsz5X7vIznWAG58ICkiABAw0B4gw84ILL2ribLdWScPgBKOrh+S1pc3d7aGM5AbXTCMEWdcCOBABMMxkUu2dbVbE8ryMZDpgxMjIGzZ1T83oDSF23GXfzFu4oFtEDcw9ccrc3la9YuX6t9Zsrm9oY+FwS6qvM967d/X6YRhzpCWULPGC8YlMjuxvjSpPQJcVe6+3X4fsMxaezom0+GRQGCAC0ppJOPOMz9slRRs6G3tsxonnW6I8z9GpPi+VECFDZY0LPJiYiQRAnu95nheJOmHbBgBlQGAgWWbA2fgJEyZOnJiIx4UQUqqCgsKxY8f89rdP2dyRPnFuxGI5q1evBuAAZIBOpZpEKJWXbwkC0nbCDLWBeLexfer8+dNmzzQJQjCYnNgjRgGRcY5CFBaXzvzsaW/FG3d5vZyApeNjqkvR7aUgHYlGFMvqAhhIwkPQWhnC4ELY4RBHAkaSk2+AZzDJeX1Ty8rXVtqWlUqllB+Q1qeccsr2v2x3YtGc3JycaLSjrfVA3b5wOKKRaZ1s6XivrCLMRABakI6lowVbWrq7RfiMCy/wIRCMmYNSj//8f7LniYAAggFD07a/cdUVPOa8XVfXaIVDplUTy7P8jNveQX4AnAGBIAAgxUAiIUMEcswQaQWglfIJZYAqbYDKyzVDkTdeX3X3j3+yfd16AzQC5cWiEyeMX/bfz9bV19kh47nfPRmS0jAYmJbs7c5NeTU5xTpUulvlblfipX316+qbaidOmzxzpojYwA7y31HSEZ/cZ2MpRMiQCWESrnnldSsWLc8rCdCuT/QnMZRbU9sHgfKVobRmpBE0kcEFV9pLpcoqyhL9Cd9zBWdIGkELLqKOE41FMfC3vL1h1euv9nZ1lhUXTJ48fuljj2qEhgP1vR1dpfmFFGhXuRE3M9SJVkSLtuxsWLVn//a+nhYpW1y3TwZ2LGf6CTOyAbhBZKYcdRaH0sSAMQ2LZs9o3vHenFFlQwvHr9+xdy+PlMw7pUGm0z39BmnFSHIirVXazbOd7rb2STOmNre1ZlJpzhgDQi2RNIA2OBoMAtdtb2tPJOIqkGWFxel0OpVxC3LyYuGYHYpIpESqD/rjoi/ud3cZlpFXVfr5RecuOm+RadvX3viDVevWr123oaS09IP8iE8UBdKgFfopr3HP9q9f/CUV37Nw5Pwgg6s6ewtPmd+kvEx3mulAM604IFBPeyfzJLn+Z+af1NzWmu5PuYl+UD7pIJAeSVcqD7SyTMEY6+vrk560jVAgFQgzhzvpnv5IJKqUp4UXZNKOGV64YMHiSxZXjx1RUFySSvVFuOju6lr42TMvvPgrV1x5JRBl6+8+WRTg4AmEIv/V116++RuX50i/bNio9XubJp55TqtUfk9aKVczrRkCUHtzU6Y77jBDeIGfzhBqxXQoYubkRAoL8kcMr41EIqZlACfBeFdnVzqe2r79/UQy2ZNMlUeLHbR64n2fO/M0KyJefe1P11xz7flf+pLne0uWLDFNvOjiC4uKi3zX/+53r9q9e9+yZX9wHMcwOOIhC/7g4uE/kpNB5LgRAWlQQRCceuqpBy771oM//jHFewJUUnoCTYlcZUMSBIn+RG5OrDIvP97WsWDBqbNmnFBdU+Hk2CXlRY4TAQBDCEtwV2lAzRkLAXN92dzc/OPbf9ra21tdXJ3qiq9Zs+qU0xfMmDV9595dXuD19HY98cTjn/nM9KlTj4vl5vT19kQizrz583/1q0dbWlpGjhx59DMaVDa41ppIc8FlEHz7e9d6qf5fLn2MhWw3lTajlgdEyBCIIVRWVFiCRU3eGrhnfeGMWTNP4AKYoZBRxnM5MxCk1GhwBOAAEIA2hLCEWV5a0dTZ63NhFOSlgPa3NC7IO/lzn1uwb//e/Py8RYvOffDBB198afm0aVNPOml2OGxPnjSpqqry9ddXDhlSYxjhTwMFRCRiCMSF6Un5nev/XTrR/3p0mfKUGUOtg4HMZYJ0fzKDMq5kBlVDfd2ck2ZwMcCnkZAN2VpRItADMbxsSo9gvKqy+tV1G92WFgTg4dDeut1A/uTJE95cvUrKoKam+pZbbhEG11pxjoZhRGPR/Pz8vXv3Oo4ziLqXQaLAGNNac8Y1SYn8a1//t98+/qKXDhxkirJRYMxmbQAyxVCZom7/AcaAMSDkAIQDQqsH8nwIGAwkfCCAYYpAaiaVwZFINh6ok9KrqalM9Pdl3FR9w4Gnn/o9oNZaH3/C9Pnz5gNAYWGh1npwpT+DrI/I7kZaa0DGOITDkUjEcZNpCCTPGo8Hj2sYogaIWPa+vXVSAhfZogZ98KBxINcJDwX4EaQKYtE8JM7BJOmDkvVNdb7nBVIlk6lEIllSXHrttddKKRljiOR5vuf6ruuOGDE8W77+KaEAANkvIyImWFdXV1FR4YHmbgBC4BoJEAGybjYyFESqu6dH62zjgX+yXErJbBkBkAKtwhE7kYi3t3copTzPSyQS6VQ6FAoRURAEjCNn7EB9Q2dn58knz8ty6tHOZZASAX+dWRoKhQiSliVDBgPOSSnGGIDO5vUTMERsaa6P9/Vadv7BhLksNzAEYNn7rJ1OWoMuKCxQWoFUCCoSDnW1try96Z1tW7Z2d/csWrTINEzHiVVWVcyYMWPWzJmxWOwX996Xn58/atRIzvmhER45Db4+IisU2YLgSCRsh8XO3e++9PKz8Z4WoTOGcoXymQ60kkCAhErrZCqZUcbMnwAABP5JREFULSn44CF//cjsxRhywTKppB0yLMEZgODiN79ZWlFVtWTJkmXLnjnppDnJZJIzvu29bTffcstppy0IAvnQQw8JIbJlnR9+5j+ey8etm/J9XwjBOF5x5WVd/T2btu1qbtjlOLGccDS/sAiFEShAxoGAAHbs2FE7pFRwfgiGw099B35DtOxQ1Im4yf7tW7aEhLZDynf9H9xww4mzZ3PGAk/efffPd+7cWVdXhwhCiNLS0nFjx0UcJ5sxeqjdx5EXGX6sesqDleEASBpVPNm/60D9A/c9vOaNNVprRVhQXJaXX6gBVBBgOr1w4fyrr/6OE7EPLReDDw+XWlubE8nMly66dGjtsIhlbXh73V133jbv5JNsy+aMIXLSh46gMJtsDwCMcaIBQUPMtnU5mFcA/6Sty8flhayORIYIIi8WGj868h8PLtn1lx0PPfzwC8tf6m1tdOPdCKy/P56XE9uy9R2ltFIkxOGS+DcrhsiYUn5pcc5tP7qhsb7pzVV/rq6qtiw7mywJB5eaiA6VhzCGwBA1Eg1AkN12Nf6Vo/1RjPGx6qYOLWm2WkwqaTPDEmLSpEm/fOSRt9asuuKbXx83rDrXxlybk/LeeXuDm0kLYQwkwX7EtyNwwQ0nFPEzfklJiRCsP540mMmQg8ZDKUaH0t8ZQ4Ds/vw33iTiwQ/TP5SOY9fFgIAhG7gYMoYjhg+97urvPvPUkytefenVV1+58/afGBxbW1vgYNTmowZl23YmnUklU1pr0wwVFhQeOHCAiEj/Xa7+H1BhfMibRwR2WPUDZ0iAhmWForH8wvIhQ4aeeNIcO+y8+867pPRhKPydTgqZjGfb4UAqz5emEaquqV2zdq3reogckAEyQD5wMQ6ME7Ls62EXEmZNcmIHr3+gGo5dnTVgNr2ZHXRr4SAfEgIhC0ecSZMmrVixIpvI9A/qvZyIEwRScAMBkWFJcXFLc7MMJPKPkKD/CbW1WcIPXX9DQohTTz11165dyWRSSvkPav9CoVDIDEWjsZUrV95/3/1/fuPP4UgkGouRGkgrPDIjYGBUR0KfUh+37FTnzp2bTqfXrl3reR4iSil93w+C4BAcWpGSJAzGhcjNzb3//vtffPHFiRMn3HrLrR88C49d34WD9Cl1rSIiznl5eXltbe1rr722cOFCxlgQBJFIBA7rbJZlj0RPEhFN0ywpKXnqqaeqayqBgDQNRIA/NP+PKw+fGgoDvZuEmDFjxrPPPnvbbbfNmzevurracZy8vDzP8xhjiJhMpjs7OxGxva2dc8xkUtFYhHOe9V+RIQEBMcLDnNFjwRKfSKeijyKt9b59+04//fRUKpXtVFZWVpaXlxcOh8PhsNY6i0JPT08ymfQ9f86cOY8ufTRbT82zyRBIwBjhgNGpgZCOAS98qigAgOu6Bw4cqKur27x585o1a/r7+zs7O13XJSLTNG3bjkQiw4YNGzF8xGdmzpo6ZWpRcYHv+5xzrfUhf5GymSEfQYMoNf60eQEAgiAwDENrbRhG4Espg+w7gQzC4bDruo7jxOMJ0zRtywqkBKABO/2gsfi/GwWl1OEtHhky0NmmZKCz7vdBByEb0cuu/6Gaq4ER/7O60UGg8Kl2PD18AgzZQEOibNgeIJu5mf1ktvvVoQ4Lf5foMPqYA/tUu1xmw7YD7ECH2T0EWmtFigue/czA23/NBR+mQ/P/mObj/wMlh8325rtRdQAAAABJRU5ErkJggg==;" parent="1" vertex="1">
          <mxGeometry x="180.66" y="186" width="29.66" height="30" as="geometry" />
        </mxCell>
        <mxCell id="GzjMZUccyGTRzbvRXXpj-69" value="" style="shape=image;imageAspect=0;aspect=fixed;verticalLabelPosition=bottom;verticalAlign=top;image=data:image/png,iVBORw0KGgoAAAANSUhEUgAAAHgAAAB4CAIAAAC2BqGFAAAACXBIWXMAAA7EAAAOxAGVKw4bAAAAEXRFWHRTb2Z0d2FyZQBTbmlwYXN0ZV0Xzt0AACAASURBVHic7X15fFxXleZ37n2vNlVptbVZtmRL3rfEtuI4i7OvxEAgCYFmC9B0A93wG5pthgbSMNPbNN3DhGkgNA2BBLKRdMjiJE5ix0vseLfj3bJlydqsXbVXvXfvmT/eK0m2S1JJlh2mJ9+vfnK56tV9937vvHPPdu8jZsZ7uPgQ73YH/n/Be0RfIrxH9CXCe0RfIrxH9CXCe0RfIvw/SfRwk/Qc8/SP1lo13u0OABl2iAFCKpnq7uluajx16tSprs6ucCScSCRs29Zaa60BCCEIMEzT4/Hk5eWVFBeXlZfPnjOnsrIyLy9PSDFINhG9q8M6C/TuiwAjEgnv3bN37549Zzo74/F4KpUird3ugZGlhwScLcggwzQCgUBhYWHd7LoVK+pnzJghDHlpRpAL3jWitdZtrW3b3nrr0KFDPT09lmWx5kERHK8oDoowMzMgpAwFgzUzZ9bX1y9cvMjn801q3yeCS040cywS3bR5866dOzs6OmzLBti9xxlE2cQ3dxAI0MxDSoMoFArNnTv3pptvrq6pweBpLjkuFdEMgJubmjesX793z55UMjlckU5aF87VKEOQUk6fMeO6G65btmyZ6fVO0vnGAWLmi801Ac1NTS+//MqBAwesdJoAZhYkBs/LYLjieKFnGmyTBv8APCjjgsrLym669Zb6+nrT47nQ042raxeb6K6urpdfemnnjp22ZbEzdAZwcW7fbHcHDzud854J06qq7rzrfUuXLpVSXpp7+qKpDuZUMvXmm2++8srL8VjcMd0ujFtXL/AoOjZXNURMAGHJkss+8MH3l1dUEGH8E/D4cFEkmoiaTjb+9tFHT59uAfgCx0BEWmvn3h/O5PBOk3tkruqeCcQAyOf3rllz11WrV3s8ntF0/AVj8h0WrdRrr6578fkXlLIBTJhlKaXH4/H6vD6/3+P1+rxeISUA1tqyrGQymUylkslkKpWybZs1DyOJxzxv5uLrZDz+3DPPmcHClStXGHQRmTYwqR5UJBz+t4d/fuzIUSFcAcwFnPnr9XqLi4srKyvnz59fU1NTUlLi8/lYUNYestZa6b6+vo6OjqNHjjQ2NnZ1dUUiEcIYgs1ApkUmw7v69rtmzl/cH0vl+70eQXRxohKToKMzUxy3trb+8H/+UzKRoNy0xaB95/cHqqqm3XDLzQsXLjQMwzEStNZCZBk0DzeTz/uqo6Nj88ZN+/bsHRgYcG4pGpJfco9yDycIsfrWO6+49kZDSinIFDroM/0eScOGNVmYJKKZ39m7/+Gf/VRrzuXmY4AZ0pCVlZVr1qxZsHChNCdViWk+c+bMy2vX7tu7N5VMMfOw6U4DAmCGUX/9TVdef5PH8JHUhiDnFTAQ8HkEja1/xoULJZqZwbx546bHf/c71iyEYNZjn1WI+YsWfeKTn8gP5Q+1NLlhIAYAbdtbtmx5+qmnLcsCmMCAAEiDltRfteq2NabHlMKQQhlEhoAhhCTt95oBj5TQmDw9QlqPzcvoePmll1547nlgbOuFiABaXr/i3vvuy8sPDTqFDr+TaPwMb5CILMvavXv3Y48+mk6mSUMLOe/yK666/f0e0yOkMAmGJEHkkUIKGFIKaJ8pAh5nopmkLk14eMxMwNq1a1987nlWmuQY14xITJ8x/VMPPFBWUS6EGEXVTgrObz+ZSLz4wovr39gwbf7ia+74sGn6pIAUQhJMAUOSKUgKIQVMIQ0Jj8EBj5HR1xeKiRKtGUTr1q597rk/ZNUVxGACM0gQmD0e7/0fvX/5FVcYk6uLxwkNHGvubItCevyGFJLIEJDEphSGgClJCpKOAhFkCPiE8HqElJMwNU5k2I4sv7Vlyx+ef96R4vNFk10XApq5rq7uk5/65JSppTSJt+L4oYDumG6JCS0MKAZpCHIYJNbQrmZjArT7cYo1bOGXxoXfexMhmkCHDx986skntVJEI99XRER0++233377bZ53OyKsGb0x7G7sTsP0GAICUCBmAcGAcqw/BjSbJFgQM2mGFpTWJGz2GmdFqSYAA+Ofhbo6Ox/51SPJZNKxkpwUyDmRDGY2veYnPvnJZcuXkyE0QG6Q7pKDWEN0x623T3Sl2SsEbK0BIUjbgCTYEJI0BJFmkHDnUfe3BFAypViz15BCOIOYyDBy9gwzjafSqd/86pHIQFhkejJIsaOXHXjzAl/44hfnzJkzfMQXOW5zNti5ttCg3jjeOtqd0KYpwcxasw1IKQBYzIIhmJjBTAxihgKcoQjNSlvbtmzasXXzpz/9yZqZMyFoYsMY52So+cknnnhzw4ZRfFxm5BcWfOnLfzl9+vQJdGjywI4y6IrpDQfbEuyRQhqkpRBSkJTwCOHYGFLCIyGFMAlCkGGQFMIABKeP7tuzecMbfd1niHXxlCnf+OY38gsLJ9YbI3eiCThw4J0tmzazHuknfOuttx0+euSBzzxQVl7+bmUjXUcbzODelHjj4JmwZUrBDCWkgCuqQgsMvrdJMzQRJEmphLLTDUff2b7h9Z6ODmZNxAz0dHc/++x//MnHPy4nlPPNSXU4bnUykXj8d49bljXKGHfu3vWlL32pvKICRDzMGbmkyMRQelN4ZV9rb1JKCc3EGg5DGmwLLZQEWDPZUkMDYCkF23bbqYM7N77e1drseJHEDAZBMHj7228vWrxo+YoVE+iUkQsRBBDjmad/39fTc87hTkjAMaSFx7j3/o9UVE1zv8pJ9TOIwYKdECUziMgNR4wDPNgZcueJ7iRe2dfWESUpwMQGhJKwAWYiBjMs1poBkGRIRRAIGrx13Ut7t24CMYGdwOtgjEQwsdZPP/Hk7LrZoYL88QpQruM53dy0ffv2kQfKRHTHHXcuWbJkXKd3pnVNdnvkdEfqNEAEzROun3K1hu5L4+V97c39WmuhNbTC0F/NmTdaKSiGYi700tyy4IKq/LvuuDEYCmitnMDIMNuVmRhA/8DAq6+8MoF0suAcoJV+7LHfppJJdjTfsJd2xJlo0ZLFd77vTjghj9zg2ATMlETsb5/9qx+t/b6NBDMR69wbcUCsB3/Vr8Tzu1pO9Fg2S8XsvDRrZra1trVWcAZFpHW+qZdV5i+tKZiaZxBzednUT376U8Iw9HkjdV5g3rhxY1NTEzNrPY5+CsoBR44eaW5uJsewyfYqKil+4DOfyaWp4QABApqsowP7emXb6diJk/Ejzufjb0qABBGFFb2ws+NIp21B2qyU1lqx1qw0bM1aO6LNSuugaV0+I3jV3JKKAoMIguC0M3/hwuuvvz7rMJlARLZlvbx2LTMLkRN7DnK4SZl//atHoHVWkgVDCvnAAw94/ePw/QbLDGykD0d3/OjF76UpHleRHzzxraPRvcjVhxp+DDNzmPH77a1722IWDKWYmRSTAmlNDrk2NDP7KbmyJv+2peXVJT6PU/uQaYUAInr/Bz44tbSMCIKHTiNAAq4MHDlyvLGxOffxIhcdffzosWgkIkgIEnTei4FlK5bXzZ0zZjvD4ehSRdah8Ns/WvudtCfqpKsi6PvBb795aGBXbjPNcPefokzPbOvY25Kw2VRaK62VZpthabLAFjO0DnCiviZ018rptVN9xgiDJ4LX5/nc5/+UQJoEXH7ZBuDxV8yc85EHvvD17/xNaWXluIY8dqzj0cces5UayXTMyw/d/7GPImczbjBvoZA+FN32r6/994QZUbYGg5kgdD/6fvC7b//1R/5uXtESAROjxxcyFTJx0LM7zrzd2K+k12BtsCCQYGeW1lopn0ismFl6ee00n6uxhrVxbs8JwPTpVcvrr9ixfQcEWZCVM2pX33hrZVWVx+sxpCBJKaV9ik2Zq+0xBtHd3d2dnZ1Zv2JmgG657Vaf35/jyQC3PNSi5MGBt/7tzX+Mm722zeSGD5gJTHpAD3z/sf/2Xz/6gyXF9aOleN37mhOgJ99u33KsX0u/0KzAYAUQsSBmP9L1tSXLaqfnGTAzJuAocIIZiulDf/LpziTNXbRkSlm51x8wDamksBmCSTNppqRtS2k6qjuHgY+iDRn/8sMfNhw/jrP7lok1c3l5xTe//d883hxrq1xptpHY07fh11t/FBXdttJakZ1mZUNZpBSUTcpibYsCTP3WPd+9rKJeYjRPLAE8vaN73cEOW/gNQYaAFCQJPomQSK2YVXTVvLJCH8xRejVIFMMGYozOPqujN5y2FJE0DEMQTFOaAh6DPFJ4pDCFMCV5DOT5DClY5ED0aBKdSiaPHTsmhpE0RBiDiG68+aacWXZhI76j+/XHt/9rVHZmZhrmIZXilIyxIO61uv7+ib/52j3fqZ92JZHAuRFCBigJ/H5n19q9HZb0CdcuYAnOk+kVM4qvXTCzPAjp2JFEg786dygEGwjbON2ZaO+OJCwNIaWUUpgeQxATCcc9HDTymJk1u8a4kVuQfWSiGYcOHSQaUeSLiovrr6jP5RwZkELqeGr3a41PpfxhkSal2VXNwzw79w0zM7qtrr974gffvuc7y6pXSpJ8Fk+UBv6wb+C5nW0p4Zcaklky+ym5rKrghqWzqwrgY0dRDBHBbmUwE4gJaVBfEo0dsZbucDxl2ySFMEzp8RALZobUzBoMkoOBQAYxSAMgaMDW2kROenpEojXrF198cbjpMxwMrFq1KudwPjNgI/nOwOZjsW3X1tdvPpI82XySyBFSyrBHmeA6D8beutNdf/v4//ire755de01GXMLDCjgxQPhJ7c2xthPTNAqD4kV0wtvWb64pgR+11A7tx9ExECaqCOOI83htq7+cFJbIDI9XjIMQ3jYrZHToMF+aK21EMzEDM3QTAw3facUa5a5yHR2opk5Hou1tbaJbOVsGvB6vVdceSXnmGBlIqAXbU9sftg/TalgbTQSdU1lHvo5ZYIqmRiDE/egjlTnj599qP5rV5psOsrDJqw7nnx0U0MUAWaVpxOXVQXurF+6oFwEXKOPHP0GgIkBsoEk0NKPI809TWfCPbGUEn5DGqY0DckGkyIIQIM12AaRBpGCEMwEkHZVh3MRNAuAyaFe2SwNgltOP+JUm51oImpoaKCR5kmiufPmTpk6JUeTzoFFiSSi3V097b2tSnFGch048iEzUZzMBYIrw3GOMbQT37EZm5vsX7x2KAa/D+k5U+T7rli4rNoMkmO0uUMlMIhsIAY61YsDJ7tPtHZ3xWxbek3plTJgsiCGhNZwwkzuVc5cekYm0cLDwx6ufAg3DstCO8I/VtledqK11hs3biQSWuusZW9X1F/hqO+cuCYGYChPwC5Ki0SaY9DkR0hYXqVIK7aVVgpakdZQWttas6Y4p2JIMCOP/UGEHDWjgG2t+v+s3WuxmF9s37Fi3qo6T9AxhNx6XmLAAsKaTp7B/saOA6fOdEeVbQSkIU1DeiAltGDhqgU3gkGOmnCnu2EjZXZLRJwwIxM5ERpHxjWzZmYtQDw6E9mJTqfTJxpOMOusuVePxzN33tzhk+QYHjOBgGJZ+Zdrvrul9aWXDz7hYf/Hbvjzat8iQGjNBNJ6mLJmYqZdJ3Y89MI/M/hz7//81QuuM2Aowt5OPPzi2+VB3231c66Zm1fAEEOldJQGBmw0dGLvibb9jV1tEZUin5QBj2CTpABpZs1QYJExdZz50uVRg4lZsyZiIjC0Zk2aB60OkGbNcPQJALDLOI8pbtmJjsdi6VTKzQqe921dXV0wFBo+14wu146IeBAsF7OLqIIgPOSr8s2u4gUgcgrh2HBjra50gprkaQIxeIo5dZq3CqCjncmnX921ZuWCWy4rCjmlXQTNlCb0WTjZqfc2tOw+3tGZNFLCz/A69q1z37kmnuMROR4SK2YByIxiYJd053oTaVcXkGYWTpyU3b+AG7ZkOLYHe4zzzeAciD7TcWaUIMjixYvHtTJimPlL7mROcNw0MJjSA9TbFm4xyCgPTQ+iiCBExtZz5zNgIJpqOdPztY9eXSxBgGakCL1pnOxU24807z7Z02t7bDIZBZDDVT9lSGENDZYMIhZgAjupeYYmBafEgzJqhJSbFncsDXbuHHbVC2lm1pkLp6GU5rHM6exEHzx4kJlHiu3VVNdMrHJn8BdKq7hOQEDD7rCa/uUPf9MSb9KWmBmc+9UPfrvUrB4y+VzDhINB702LpzGQAnpTONWlNu4/uaexZ4D9Nhkk3Eo+GlS3YGfOMlgZCiZggkxBpiIPyAR5BUwWXobJ5CNpCvIKaUj4DGEawpTClMLrviEp0dV+OhmL2ukUwMTKTiVTiYSVTkErw6T77/+IaYzm/WX5Tmt9/PjxjB15LleBQKC0rHRihQPORM7MYCilIJBE7OGXf9isD2lTKKJj0X2PbPzZf7np+xLGUG2Fs0STkbL5ZEffa7uOHemIxigIaeT5zTwogvJ5tCmFFCQEBbwen8c0TCkIeX5/ntcMeE2PQF7Ak+cTPg+8Eh4DpgnTgAFIch10ATfe5LingoZfbvzb2k37du8ZivBm/tHMHo+55s47C4tHS5BnyYJbltXR0T7S/FZcUuzz+6F5bP1/LoiJh3uxzBzHQHP0uJbO/6Cg9p/ek7BieWbBoN3q2LaCSBOVVxX/yfQrBSABmSGFM5Fxd0nSIEHs0pdRtmDWRJRZm8XMkCScyYxoKOrBGbMOmf+SEHW1tXt37WK3cow5U2ZMgLLtjvb2gqLC0XT0+fNYOpVKpdJSiOGuymDR4ozqamctyQRkmkAkhBCStHD6qKDI0IJIKyYSQjBpxWAaSrKAhRBgMBkG8gCduQ3FENHumM/t01B4w707HWU4zAF1Xf8MB25oL1MUlPmUCMDMmplSGoqVu2pp8DcAQbS3tc1bsGCUqSuL6kgmkwRorcV5PyNB5RUVOdI6WSAGgWO23nn41NuHm1j6fYG8qcXFRaFgYb6/IOAJ+MjvgceASS71Z71cAScxLBqe+Zfgsnt2TMQxMs++cKWlpaZhaqXO7yEzt7W1jz6KLERHo1EnJpAVxcVFo7c4NgYNX8AP38yamv1N+87+5iwICIbIM/m6xbOWLZrVGsXa3R1PbW9MwafIAyEIWpI2hDagfZL9UuV7RdBnlAT9RUFfUciXH/CW5Pvz/Z6AHz4DxqDCIddGdCgdbs4SQNpx312J9vv9Xq83lUqd001mgLi7uwsYbX2NcfZvmIji8cQoNkUwGBqLyOxQsNOIWSLBxJpVmmJxDPSju7G5kYC8YMgjA53dPUrrlBE34UlT0vmhxckU4l74iBAEz8vnedeXf/ba8qP9eGPvmbePNseVkSQPsyFAMZAEupMQKXhiQnamPYaSiJlSGgIeA17SPgNegwOG8Bqc5xFegwM+028ahQFfwGvmeYVpSr/HkASnDt25AMIwPL6ADkcwpFYc1c/MHI/HR3fBs5Tp79656xcP/3yki/Ot73x7vEV1TmCqnY8/9PJ3+832lI4LJq8REPBYloqmopZt33D1zTOm1D7+wuO9neE8Waw1UqlUJBa3lA4gWBqq+OVfPGKQ5+xmSQG9aRzu5Ff3t7xzqifNBgkhhTSllIINg6SEIcggYQppSG0KKZ2Cc4IpyRBkSmfpCglJHoKUZAoyDDIJpiF8Eh7BHpM8UvgktZ9ujkX7E7FIOpmIRaKJaDTc35dKxpKJeHFx8Xe/9x1nYkE2V9k4P+KcSqUwgrNHgkxz5GTFyFQzaYVUTPWnRAyCFXRCR1nDtpUCgdHUfLK3J5JIJlnwQLpP2awUawEwR1JxXyqqwAb02UpWCMYUE6ur6Kqq6d2J6QfP2OsPtB5vH9BsCgjBwtAsIUhqEOXgJwNwwvsEQGtOk9AsbEJKI6EQqpxZKNgUMAQZQkqCx5ACimAZxEzC9WqzIUvtnWVZlN2IBgAp5biCdg4EBEiwEBAgJiZDQ4MAkpIESDeeOmmrZtvWICJSkCAF4YQXBFwj5JwQu7sonAFtgMr9KK82Vs+o7ozxvvb49hPdp3uSGiSEICFBEEROF0AQQg43bBw5JCGIIAQJIYRTKgK3JEMQCMJxWZ2IKBE5yyClkKYwPBLOEtaRdO65k6HjToxkRE/ITXE4YbAWWjsxIMHMmS0fyipKu7t6opEEK6mVBoi0EJo0tCYaTNxmOb0TsDzLWmCDqDJE04J5t9XltUXUvrb4nqb+M/0JFiYTDUt/Dy/vO7vdYUZJJqNCgoVTvAai4RERuD6ocPwqOq+xQZxb8U9EpmE6ZThZ6XZdi/HAuT9M+KYV1ibMwoFU30Cq141Oso70D9gpJWEo2E6ATQ2FHdgv8ysqpxd7C11Nf9btT5nw9dmGGQGAJEzPl9PzQ7fPD7X2WfvbYgfbYn0xW0AQOeJNJBSRCUCAJUEQCSEIipxay0zjRAQB56IL11ESxI6ku2VSwiV9xOUAWSTaNA0hRkwV2rY9LpaRmZtLedbXrvmRIuuFhl89f/KXmQAyxeNxW/E5UzI5qSKimooZP/7YzzzkhWLI8dcWEgQwo9CcUVR46/zC1j7rQHv0eGc8ntJCQLAg1oKEK93EgBoukkTOUgt3fhtcMk3ZHaTRkEVH+3z+TBLz3KMZnEwmx62jXWNUArBhxeJRZwYQgJ1xc516ambnY86oO4pFo5oZgiAI0DTKzZn1zDw0C3oEakrMmSVFFopaeuIHWhPtAypuKwElhOH41SCnA0PFf4NSLYWjl0HklPmRECQEkXA8cXYYy8mOduB3C2KyBO+YORaL5T5OF463S2BoBSuc7Hco0xk/1gmeuq4tQCBNTv0ux1TKVgoyEzYd5zThBmUz6QtnQB5gZklgRknAtnC6L3a8M9oeE5qVQ5tLZ+5wgx5jdCwL0YG8gBMIF2dLtBN5DPf3j6MTg3D9YKFhhRP9DCbWBMqEpgbDzs7BQ4uwk6lwMhkPeoJOKefETo3zrg8BBmCYqCvNm1Wal9Q43RVt7omFU1AQgoiEYElEUoIlWIAEiBgCJIkEyCA4UW1JQgLS3TZjPLGOQCBPM58f6ADAzF2dXRMZbQYKViwd0UzCScWeO/zBT9yQqlIqno4zLtZ6ZgIkkCcwpyxYVxpMK7R0x9r7EjGbh8IkYHJzAyITB8SwWAg7amT0E2Ul2i+lRLaF3UTU0tJyIQOzkUqmIsLjdFcS6YwtPOhVZc5EIIJSKpwYuAQL5xxj2TBQV5Y3qzwvaaO9K9wTtdMQkIIdKolpSEcLp4eOhs26tchwZCHaMMzCwsK+3t5sriG1trWlUinvhLaOY2alIdknIRXb7NboD33L7Jq37ucMrVU4Hna+vwA7PuceZqKvAQO1Ffk1QFqhqy/WG0kyPGKElJNzFXjUxVFZfimlqKutPf9wAog5Fon09/YNdiv3ATi9KJLTvr3moY/N/3qpni21x4mgFRQWgkgTsZBOtZbIBIo1OJwc4EvCMoaZ4Q7dJhCQmF6St3RmyY51zzUd2IVUVEA5K1qcmLoQgsAi42eO1HK2NBfRwoULd+7Ycf43goRWqqWlpayiHBOSMQkZRNHq6e9fOf3Gxujhpzb9qil9tKy0rLc3PDw/NAgGeiLdGMp+XGoQIAmWZTUeObDv7a0sRElp6U233Dp73kIBUxCBlTTkmDNINqIZNTNnZo3eOfmbI0cOL1uxfAKzE0Mf7t5+qHP36gW3laByXnDFN+5YcMY6/fzWp7ypdsURMGdqHocaH0iGnZzLpRLr87rNfObMmUQsJqBZq76O1id/84j0eKurq2+44aZZs+sMc+zqu6wSjfxQSGSfDxnAwYMHtdZSjnsBKYG7kqdfb3xqS9MLc6YuvmvF/RWYU20u+Pzqb3z46k+9sXvtq3ueH6A+RWedtzfa9+5uKE5Eu3fvtpU1GIMmaJVOnGo4+kjDcV8w7xOf+PjSpUtGF4LsGXKv319aVtbZ3sGcpdJpoK//VMOJ2jlzcpdp50ANDqcGLCOWxsCe7p7DL+6uCs29cen7FhWsqpDVH6v//O3LP7CrYcd/bHmmKXySOe2UrcSSA64w57j72GSDmffu3jPoUg0Oh8DMtp1OVlSUj9kv+eCDD2b5mJBOp48cOpz19wQKBALzFyzIVXsMhd8orZItHadiKqaEZYtEt9Wxu2HbrpPbbJksKyovoKm1JfNXX37DvKpFka6o8IiCokKTzduW3CnOyjRdUvR0d7+y9mWl7HMmf+fil0wpue2O28c077ITTUShUOjN9Rsc/9Wx2gdfAIXD4VVXrzLGlQQgEKgkr3xZ7dU1U+Ykw/ZArM+mdBqpfqtrX9OerYc2dcfPlJWVFYvSGfmzrl1y/XXLblpQs+jkicbrFtwghXx3NDTw0osvNTQ0uHGCs3gAGIuXLLls2eVjytwIEg14vd4312+wLOv8FjRzMpGcNm1axbTK3KpJXadPUTquw3mUP81fu3T6ytnTFouUp6+3P6njlrDCdv+xtsOb9r7Z3HcqWJQ31T+1ACVlvvJFcxcFZUi4WexLyrV2Vg3/5jfJZBLnn5tBgu65556SKVMwqv+NUYgWUibi8YaGBqJzU/iOdx6JRa+6+qpx9JqQxMCvNzx0OLzDX+AtNssrPLOWVFyxpK7ex/m9nT1JO64ER1X0RPexjXs2HG4+bATM0qKyAlkoyRhq5RKCiA4dOPjW5s3D4qKOriYn5VJYVHT3hz8kjbH3LhiRaAAVFRWvvfZatpAHQOgfGJg7Z25xSXHu/Y6g+9WGJw9Ftu4+ubWx56gnTxT4S4pl1YKy5VcuuqbQOyXSl4jEIjbsFFun+05t2r/p7QM7tERN6UxTGO+C6tD6Jz/5aTQSPbd6OVOAefnyZZddfjnGEmeMsqcSAfn5+fkF+eH+MJ1/zzKUZa1b9+rM2lk5aA83+GKzbaVsNnTM6Nk/sPHwlh3TA3Ovmnvr0mkrC1G2Zt7Hb5i3Ztept9btePVw64EIR1MieajrnYY/NMybOm/etPmTuEd9jjh+7PiZjo6RciDSNK+66mrn/ZhZJ/nggw9SNjjZheLi4l27dzmPPsnEUNwbSAjR3d09mTX3tgAADSNJREFUe/acKVOmZG3h7MZARJKMooLCWCSeSMVtpGyZ7rXb97ds33pgkyXSofxQoZxSWzj/2oU3Lp69JBG2B8LhVDqlBV8374bKksqxzjLJ0Fr/+KGHYtHosCEMY0BQTU3NbXfcLqTMpbWRVQcDhIqy8g3r16fP3nUmE4En1tzV3bly5UqnOm7kO9spWIQkb2Vw5orqa2ZNm5eK2vFYNK1SFtIRHjjYtuet/RvCVl9ZeUWAgpWB6mvmX3fFZauEJTq7ehZVLa6tnDUYrh5ddi4U7FrIu3ft2rxxE7J5EsQgorvWrHGehJFLh0Ym2s1NUDqZbGg4cc43g00P9PUXFRXNmFGNMU5IRNSTbu+xW/KMULlZt3zatUtn19sJRPpjCSthw0roxPHuw5vf2XCo6VBBYUFeMFRqVqyafc0t19xSGirN8+aB6RKoaafCMR6NPfS/fmTbNmWtbwHKy8vvve8+aeS69+Bok6HD6KxZs9avf0Pb6hwrMmOzobGx8eqrrzLHWkLLwM6O1/590z+c6D5cUBzM9+QXonJp+TWr5t4Q8Ia6z3Sn02lLWzE71tR/8o19697ety0QChaWFBVSUchb4G6nQePYImNiAEEr/czTT584cSLrkAmAoDvvuqt2dl3uSR/5ve99bxRqAEgho9FI44mTWfW9AtvpdFtb+/L6MbZ0YrKP9u7c37PpjNW4/eSGvY1vF5QEQ/5QEMWziy67ceEdlaWVHa1norGYglZs96Z6Nh/Y/NrWtRqqqmKGT/iHJ2AuKo4dOfrUE09g5CluamnpRz56/7j8tdGIdkGYv2DBpjc3JlMj5L8ZnV2d+fn5mUf3ZGmCmDSpY+0HTnQd0sKyRDKMrj0tmzYfesOidOWUah981aF5Ny+6a8WSKzs7unp7em3Wmu2oHd3WsONM25nrl94IXIq9TcMDA//8Tz8crKo4Xz8DdM+991TPrMnOxggY0eo4B6ZpHjx48Pz71v0EOHbk2IoVK/KCQRpWazV4O4IgIKun1i6oXdrX1xeNRSBYSx2n6KHO3a/ve6Gjv23GtJqACJXIiuvn3XLDFTenksn21jallAYFfQV3Lr9DUk7z+4XAtqxfPPzzjvb2jGcyfBDugGtra+/+0N2GaY6r5VF19DDMmD5j3759kXA460UkIq31zh07Vl+32jCM845hABqaQFNl1YrpNy6fcw0Ut3e2aVaKlSWSjeGjb+xbu7thR2V5VYG/OF+UXDnr2luvumNqUdnRY8d9RmjNyveBBV2cFO0gnnvm2R1vb0fWSlo3ZEef/dznSqZOHe+sPI4d0VtOn/7Hv/8HK5UeZXfiaVVVf/3Xf60pi6eUptjanc/MqZs9q3CRhFeABnBmR9vrr+x6tjPekWZl26wVS8s7zVd7Z/29V89d7UeeYBlRicYzxxdPWyxxMZ8CxLxp48Ynf/e41tk3qnQWPd5088333HMP07jTPePYm1Rr/fSTT61fv35wser5pjORqJk186tf/ao4b0PuCDp++Po32+2GSt/cG2s/UF91vQEfwUzq8IHerU+/9ZvmgVM2W5YFpYS21BSz8qaF77v7yvuCMiQgM89IuVgSvXvHzl/98pfaUjzCYgfNmDJ1yje/9a1g/kRK8XNVHQCIaPacOUeOHA739jtFD9nSeNzX23e6ufmyyy6ThoFBbhgx6ll/9Pmo7Om3z+zr3LK9+bVYOlZeOC0o86sCc26Ye9eCGZclkvGOvjPK1krriBVp6D6+7sCrJ0+fmFJSXhwoRvZik4liiE/euW37Y48+alnWOePJbLUAIoIh/vyLX6ionOASnnEQDUAIMXPmzF27dllpy+nHWd3K9LKrq7P59OmlS5cO6WtCP3dsPLo2JaLOQwdjuu943+4tJ19t7W8tL6rMN4vL/FUrq2+8svZaQ5qnu5stZUvDSCu1v2nPG7teu2HBTaFAaDITtM58p/XWrdse/+3vUqnUSGrZGdsHPviB5StWjBngHwnjI5qI8kP5RUVF+/bvJ+Zz7IvBiRqgrs6uo0ePLlq40N3aitFtN20+8YotU5mjBDOSdrw5fGT9sReOdx4MeENlocoSX+ny6auuW3hHYV7x6a7mnt5etnVKWzctvrU8NHbGaFzQWr+8du1zzz6bqb0/7+VmPWj+wgX33nff+BIdZ0M++OCD451hKior7XS64eRJwmjxtL6+3v3736mpriksKgLQEju249R6JZNwdt5gZibWrIG00i3hps0n39h1+i0haGqovNBbsqRsyc2Lb6uaMrMn1t3b33Nl3arppdWOFpoUxBKJ3z722Pr168cqROappVO/8MUv+v2BCzndhJ5awWynrUceeWTnrp1Su7WJmpCp3B5+IHw+39333L3qmqve7ln7mx3/ZBtxBkCCmBVr2yatYFmsFbFtsFZ2CmXF1R9b+amV064PcD4TLB3f13gw5M2fUzV3spLhrS0tv/31o6dOnRrjujF8Pt/Xv/XN8sqKCZZYZjAxogEgmYj/5Cc/bTh6dMxjBWjJ5YsLV+l17Y8rmcwUXkFrKJsdolkRbKEUpy0uyi+9+7YPtba0iT7/zfPW1JXMJhgEmybjWXXatrdseevZZ55JJZJDgxkBHo/3S3/5F3Vz5ly4yrqgB94MDAz89F9/0nTq1FhRNcHgdF5E1vXr6QO2N+lsj6GZlIJWsG3SNsMmrZG24PUE5tbN62zvbm5sIzaWz1r1/hUfvrxqqQnfBByWwZI4rXVHa9tTTz919MjRkTblGoTW7PF6Pve5zy2+bOkFyrKDC31WVjgc/vH/fuj06ebz9cbwsziLyrRhpwsHPHNidmlEGSnS2rLJIVrZGgpSeAO+0EB/JBW3LFsobStLCNuwLNy5cM3XP/wtY9TNBkcCM/f3969/Y/0br65zVkON+eRCj8f72c9+ZtHll03gdFlxoTdjfn7+V7785R//+Menmk45BUacNfEFEEjYprenyN7hp6KQry6WLukDpQfzbZqdXZqgwYq0JoAlgTWzJtUSbh3vPMjMBAr39m3ZsuXVda8OXxRyzpoekSmEZ0Aw+QP+T33mgUXj3XR8VEzGM2cZyVTypz/96bFDh3OIZDqGg2170lYo4Z1u2cXhmBGxFbOCVtBK2mlmm9MWWEPbzJawlJ5TuujhP/u5Ocrel2dDWXZvb+9r69Zt3fKWUnZmnVX27CgNIzo/lP/FL31xxqyZ4+JgTEzaw32VUr9/6ukN69drpeRoVr3rJwDQxLa0lBFHQYqm2vFgf0qk0spmbcJC2matwDaUTbatp4WqH/nyo34xwoazmZtIKxUJh3ft3PXG+vU9PT2U47Yimezc1LKyr3zlK0UlxZOil4fjQlWH00NmhqB77rt39uy6f//Fv9uWNaqzrN0VNixM22vaHpW0dY/tM4Men8VB2/amE2acYaV0WjErgBlpZSmthhc7ujvQMQNIp1JtLa1bt23bs3t3NBqlwUcE5TwKIWj+woWf/7M/MzzmxQipXOjzDN3VTsMGFY1Ev//970f6+zFqd89eY0WZ4InWwlZC2WRpoZWhmNgSdhppvwx9+4HvFvnzbcuOx+K9fb1dnZ1Nzc3tbW3xREIrpfVQFnXYvyPer466UGAAwjTvu/fea69bffHCsBflueDpdPrZ3z+z8c033Z19JiQg7soK0izA0AJCsuEsFdaayd0rYLjwTWQgDKqorPjs5/+0cpw7nI8XF4VoZiZGa2vrwz/7WWdnJzlrBjE+vgmOuwmASZB2tshl5xkZ5O7pRDS4GDz3YTiNarCU8gMfuvu61as9E1qSMy5ctCfdA2Ck06mt27Y9/x/PJWLxCTw0raigqKAov+lUM0Bg7VwnZ60tuWeYUIyaQURLVyy7+4MfnDJ1KhNy2Wn7AnFRnnR/DsL9AxvWr3/99detdJpcWzm7pXUODGlIQ6RSVoaGC5qlmFkIYqC2ru6DH7q7uqbGWbRwaUpULwXRBEBzX3/fxo2btmzaHI1GchRuGhThyegEkZi/YP6tt91WO7tucAHmxU5CDp3/YrN8FhjhgYF9e/Zs3LSpva1da0Xu1qEYUgeTdCJmNzsihPD5fSvq66+6+uppVVXOs9su/RqNS0t0Bsq2T51q2r1r14F33uns7MxMa5PaEyKfzzdn9pzlK5YvXLQwkBcEDRXEXDJBHurOJVAd2U9MxFpbltXa0vrOO+8cP368ra0tkUho7aYFXJlz4lEZXs4x5QiZbaMzh3tMs7ikZOasWfMXLJg7d25+KOQ8d2lQwN8tvDsSfT6YORGPt7a0nmxsbG1t6e3qGRjoj0Qilm2D+bwNOl3ODMP0+32h/Pzi4uKK8vLq6uqamprC4mIxoWc7XlT8ERE9dDuz8zQLTqdT8Vg8HA5HY9FEIoHMxOgxzbxgMBQMBkMhr9drGDJTtAzgkmvf3PDHQjSGL5J7N3txsfBurkgdCX8sV35SMZHngl8C/NF16ILxR6Q6/nPjj1F1/KfEe0RfIrxH9CXC/wW0rOhnLzMHkwAAAABJRU5ErkJggg==;imageBorder=none;" parent="1" vertex="1">
          <mxGeometry x="178.66" y="339" width="30" height="30" as="geometry" />
        </mxCell>
      </root>
    </mxGraphModel>
  </diagram>
</mxfile>
